<svg version="1.1" xmlns="http://www.w3.org/2000/svg" xmlns:xlink="http://www.w3.org/1999/xlink" width="200" height="200" viewBox="0 0 200 200">
	<path fill="#ffffff" d="M75 75h34.591v17.731h0.495c4.813-8.632 16.593-17.731 34.149-17.731 36.513 0 43.266 22.73 43.266 52.292v60.208h-36.057v-53.375c0-12.731-0.261-29.107-18.755-29.107-18.779 0-21.645 13.864-21.645 28.182v54.299h-36.043v-112.5z"></path>
	<path fill="#ffffff" d="M12.5 75h37.5v112.5h-37.5v-112.5z"></path>
	<path fill="#ffffff" d="M50 43.75c0 10.355-8.395 18.75-18.75 18.75s-18.75-8.395-18.75-18.75c0-10.355 8.395-18.75 18.75-18.75s18.75 8.395 18.75 18.75z"></path>
</svg>
